<svg id="_ÎÓÈ_1" data-name="—ÎÓÈ_1" xmlns="http://www.w3.org/2000/svg" viewBox="0 0 66.54 64.36"><defs><style>.cls-1{fill:none;stroke:#c09335;stroke-linecap:round;stroke-linejoin:round;stroke-width:2px;}</style></defs><polyline class="cls-1" points="25.23 35.54 13.14 5.03 1.07 35.49"/><path class="cls-1" d="M13.14,43.31a13.84,13.84,0,0,0,12-7,1,1,0,0,0-.85-1.49H2a1,1,0,0,0-.84,1.49A13.82,13.82,0,0,0,13.14,43.31Z"/><polyline class="cls-1" points="65.49 35.54 53.4 5.03 41.33 35.49"/><path class="cls-1" d="M53.4,43.31a13.82,13.82,0,0,0,12-7,1,1,0,0,0-.84-1.49H42.23a1,1,0,0,0-.84,1.49A13.84,13.84,0,0,0,53.4,43.31Z"/><line class="cls-1" x1="63.36" y1="5.03" x2="3.18" y2="5.03"/><line class="cls-1" x1="15" y1="63.36" x2="51.54" y2="63.36"/><line class="cls-1" x1="19.35" y1="57.93" x2="47.19" y2="57.93"/><line class="cls-1" x1="33.27" y1="5.03" x2="33.27" y2="56.98"/><path class="cls-1" d="M29.24,5a4,4,0,1,0,4-4A4,4,0,0,0,29.24,5Z"/></svg>